<?xml version="1.0" encoding="UTF-8" standalone="no"?>
<!-- Created with Inkscape (http://www.inkscape.org/) -->

<svg
   width="300mm"
   height="300mm"
   viewBox="0 0 300 300"
   version="1.1"
   id="svg1"
   sodipodi:docname="cellen structuur 2-9 editiable.svg"
   inkscape:version="1.4.2 (f4327f4, 2025-05-13)"
   xmlns:inkscape="http://www.inkscape.org/namespaces/inkscape"
   xmlns:sodipodi="http://sodipodi.sourceforge.net/DTD/sodipodi-0.dtd"
   xmlns="http://www.w3.org/2000/svg"
   xmlns:svg="http://www.w3.org/2000/svg">
  <sodipodi:namedview
     id="namedview1"
     pagecolor="#ffffff"
     bordercolor="#000000"
     borderopacity="0.25"
     inkscape:showpageshadow="2"
     inkscape:pageopacity="0.0"
     inkscape:pagecheckerboard="0"
     inkscape:deskcolor="#d1d1d1"
     inkscape:document-units="mm"
     showguides="false"
     inkscape:zoom="0.5"
     inkscape:cx="163"
     inkscape:cy="631"
     inkscape:window-width="1920"
     inkscape:window-height="1009"
     inkscape:window-x="-8"
     inkscape:window-y="-8"
     inkscape:window-maximized="1"
     inkscape:current-layer="layer1" />
  <defs
     id="defs1" />
  <g
     inkscape:label="Laag 1"
     inkscape:groupmode="layer"
     id="layer1">
    <path
       style="fill:none;fill-rule:evenodd;stroke:#000000;stroke-width:0.282222px;stroke-linecap:butt;stroke-linejoin:miter;stroke-opacity:1"
       d="m 19.67332,249.62506 c 2.38634,6.14757 37.0809,21.44279 41.53565,14.23043 27.82358,-45.04717 68.72544,-100.83896 201.66979,-136.85106 15.12113,-4.09603 2.25539,-65.804845 -4.37525,-70.081022 -6.52689,-4.209251 -38.81467,-2.312516 -61.40698,-24.874693 -1.91567,13.259808 -15.36575,22.768801 -20.7386,8.204385 -7.63233,2.316805 -19.63118,2.9545 -27.05381,8.586474 C 128.16911,64.87591 101.81303,79.24649 92.03057,76.435477 88.80977,95.595737 75.85066,94.83332 66.96866,89.759745 33.92916,164.38319 10.31439,225.515 19.67332,249.62506 Z"
       id="path4147"
       inkscape:connector-curvature="0"
       sodipodi:nodetypes="ssssccsccs" />
    <path
       style="fill:none;stroke:#000000;stroke-width:0.166358;stroke-opacity:0.98"
       d="M 181.91203,47.116962 C 171.42744,52.195888 158.80617,62.192716 145.06586,70.073048 126.11163,80.943672 116.429,94.480582 89.08395,85.938834"
       id="path3"
       sodipodi:nodetypes="csc" />
    <path
       style="fill:none;stroke:#000000;stroke-width:0.166358;stroke-opacity:0.98"
       d="M 181.91203,47.116962 C 171.42744,52.195888 158.80617,62.192716 145.06586,70.073048 126.11163,80.943672 116.429,94.480582 89.08395,85.938834"
       id="path4"
       sodipodi:nodetypes="csc" />
    <path
       style="fill:none;stroke:#000000;stroke-width:0.166358;stroke-opacity:0.98"
       d="M 203.75931,37.836783 C 203.9655,57.080984 157.00214,77.841279 143.77484,86.555297 123.21699,100.09861 89.73238,108.70337 62.38733,100.16162"
       id="path5"
       sodipodi:nodetypes="csc" />
    <path
       style="fill:none;stroke:#000000;stroke-width:0.166358;stroke-opacity:0.98"
       d="m 220.16404,47.020162 c -10.48459,5.078926 -60.26718,48.671909 -74.00749,56.552238 -18.95423,10.87062 -62.21355,18.46432 -89.5586,9.92257"
       id="path6"
       sodipodi:nodetypes="csc" />
    <path
       style="fill:none;stroke:#000000;stroke-width:0.166358;stroke-opacity:0.98"
       d="m 220.16404,47.020162 c -10.48459,5.078926 -60.26718,48.671909 -74.00749,56.552238 -18.95423,10.87062 -62.21355,18.46432 -89.5586,9.92257"
       id="path7"
       sodipodi:nodetypes="csc" />
    <path
       style="fill:none;stroke:#000000;stroke-width:0.176505;stroke-opacity:0.98"
       d="m 220.16404,47.020162 c 8.2989,19.411232 13.33485,31.115787 20.88993,45.890577 6.59179,12.890971 10.30392,21.681721 17.1253,35.385541"
       id="path8"
       sodipodi:nodetypes="csc" />
    <path
       style="fill:none;stroke:#000000;stroke-width:0.166358;stroke-opacity:0.98"
       d="m 187.27545,71.904971 c 7.65826,18.686056 11.29202,28.885069 18.26388,43.107889 6.08293,12.40939 5.93688,12.9588 12.23168,26.15067"
       id="path12"
       sodipodi:nodetypes="csc" />
    <path
       style="fill:none;stroke:#000000;stroke-width:0.166358;stroke-opacity:0.98"
       d="m 146.15655,103.5724 c 7.65826,18.68606 12.30546,29.95335 19.27732,44.17617 6.08293,12.40939 -0.0771,0.0259 6.2177,13.21771"
       id="path13"
       sodipodi:nodetypes="csc" />
    <path
       style="fill:none;stroke:#000000;stroke-width:0.166358;stroke-opacity:0.98"
       d="m 167.29815,87.98712 c 7.65825,18.68605 7.49013,19.18068 13.85435,33.68558 6.61747,15.08209 6.59564,15.65438 12.89044,28.84624"
       id="path14"
       sodipodi:nodetypes="csc" />
    <path
       style="fill:none;stroke:#000000;stroke-width:0.166358;stroke-opacity:0.98"
       d="m 48.58978,132.26934 c 7.65826,18.68606 16.48733,38.31735 23.45919,52.54018 6.08293,12.40939 12.06736,24.96334 18.36216,38.15521"
       id="path15"
       sodipodi:nodetypes="csc" />
    <path
       style="fill:none;stroke:#000000;stroke-width:0.166358;stroke-opacity:0.98"
       d="m 87.23515,117.1458 c 7.65825,18.68606 10.41277,20.48263 17.38463,34.70545 6.08293,12.40939 12.90668,26.0535 19.20148,39.24537"
       id="path16"
       sodipodi:nodetypes="csc" />
    <path
       style="fill:none;stroke:#000000;stroke-width:0.166358;stroke-opacity:0.98"
       d="m 115.57568,114.15572 c 7.65826,18.68606 13.65478,29.36798 19.27732,44.17618 5.01385,13.2051 2.16687,5.68823 8.46167,18.8801"
       id="path17"
       sodipodi:nodetypes="csc" />
    <path
       style="fill:none;stroke:#000000;stroke-width:0.166358;stroke-opacity:0.98"
       d="m 57.89125,113.88359 c 7.65825,18.68606 19.61311,44.12918 26.58496,58.35201 6.08294,12.40938 11.84452,24.40368 18.13932,37.59554"
       id="path18"
       sodipodi:nodetypes="csc" />
    <path
       style="fill:none;stroke:#000000;stroke-width:0.166358;stroke-opacity:0.98"
       d="m 26.27727,192.26161 c 7.65826,18.68605 9.34591,17.76173 15.69915,32.27145 7.42628,16.96041 14.44334,31.2312 19.23255,39.32243"
       id="path19"
       sodipodi:nodetypes="csc" />
    <path
       style="fill:none;stroke:#000000;stroke-width:0.166358;stroke-opacity:0.98"
       d="m 37.69906,159.65187 c 7.65826,18.68606 13.70637,29.36528 20.67823,43.5881 6.08293,12.40939 11.58354,24.59246 17.87834,37.78432"
       id="path20"
       sodipodi:nodetypes="csc" />
  </g>
</svg>
