<?xml version="1.0" encoding="UTF-8" standalone="no"?>
<!-- Created with Inkscape (http://www.inkscape.org/) -->

<svg
   width="300mm"
   height="300mm"
   viewBox="0 0 300 300"
   version="1.1"
   id="svg1"
   inkscape:version="1.4.2 (f4327f4, 2025-05-13)"
   sodipodi:docname="path brace prototype 3.svg"
   xmlns:inkscape="http://www.inkscape.org/namespaces/inkscape"
   xmlns:sodipodi="http://sodipodi.sourceforge.net/DTD/sodipodi-0.dtd"
   xmlns="http://www.w3.org/2000/svg"
   xmlns:svg="http://www.w3.org/2000/svg">
  <sodipodi:namedview
     id="namedview1"
     pagecolor="#ffffff"
     bordercolor="#000000"
     borderopacity="0.25"
     inkscape:showpageshadow="2"
     inkscape:pageopacity="0.0"
     inkscape:pagecheckerboard="0"
     inkscape:deskcolor="#d1d1d1"
     inkscape:document-units="mm"
     inkscape:zoom="0.58676637"
     inkscape:cx="893.03005"
     inkscape:cy="377.49266"
     inkscape:window-width="1920"
     inkscape:window-height="974"
     inkscape:window-x="-11"
     inkscape:window-y="-11"
     inkscape:window-maximized="1"
     inkscape:current-layer="layer1" />
  <defs
     id="defs1" />
  <g
     inkscape:label="Laag 1"
     inkscape:groupmode="layer"
     id="layer1">
    <path
       id="path4147"
       style="fill:none;fill-rule:evenodd;stroke:#000000;stroke-width:0.234;stroke-linecap:butt;stroke-linejoin:miter;stroke-dasharray:none;stroke-opacity:1"
       d="M 195.82823,107.34221 184.31821,93.94975 c 20.91037,-6.66887 50.24414,-23.368567 76.53586,-36.627886 14.01974,-7.070373 7.27177,-33.090507 -5.03717,-30.94356 -8.3561,1.457486 -42.29797,-1.692551 -64.54316,-17.4363069 -2.04967,10.0543549 -12.6929,10.6886719 -17.53448,2.4379389 -0.72604,1.621885 -3.56246,3.611319 -5.35933,4.387277 -9.66015,4.171631 -9.50157,4.267959 -16.13736,7.057646 -14.93199,6.277412 -36.04656,12.471064 -48.23049,15.561315 C 98.423132,39.803719 92.613034,37.914467 89.584057,37.29764 86.412747,50.667554 74.81998,52.594284 66.07445,49.053964 61.064298,57.073423 54.824159,67.107897 50.338879,77.251479 47.312795,84.09505 48.0232,98.766248 45.609777,105.2246 c -3.147455,8.42263 -17.166687,23.47283 -21.416769,28.28081 -11.334535,9.90348 -13.614035,15.40569 -4.688064,27.10101 11.320152,14.83232 21.768693,0.97667 31.74425,-6.51951 26.107374,-19.29344 71.097496,-39.37418 124.382676,-57.790324 l 11.58152,14.322234"
       sodipodi:nodetypes="ccssccsssccssssscc" />
    <path
       style="fill:none;stroke:#000000;stroke-width:0.234;stroke-dasharray:none"
       d="m 55.751141,66.381752 4.379289,0.14555 m 5.001276,0.166223 5.001276,0.166222 6.309864,-0.419843 m 7.424606,-0.494014 7.424606,-0.494015 5.348742,-1.270376 m 5.72635,-1.360063 7.28801,-1.73097 m 4.84385,-1.15046 12.93374,-3.071883"
       id="path2"
       sodipodi:nodetypes="cccccccccccc" />
    <path
       style="fill:none;stroke:#000000;stroke-width:0.233046;stroke-dasharray:none"
       d="m 105.6463,37.966885 4.10413,7.064709 m 4.09322,7.045944 4.09323,7.045943"
       id="path3"
       sodipodi:nodetypes="cccc" />
    <path
       style="fill:none;stroke:#000000;stroke-width:0.234;stroke-dasharray:none"
       d="m 127.43275,56.868123 27.98057,-10.639978 9.71824,-4.050028 m 3.12833,-1.303719 17.28916,-7.205172 m 4.81377,-2.006113 5.56517,-2.46543 m 3.98773,-1.766605 15.47418,-6.855224"
       id="path4"
       sodipodi:nodetypes="ccccccccc" />
    <path
       style="fill:none;stroke:#000000;stroke-width:0.234;stroke-dasharray:none"
       d="m 118.41053,34.432628 3.71621,6.047985 m 4.5836,7.459621 4.5836,7.459622"
       id="path5"
       sodipodi:nodetypes="cccc" />
    <path
       style="fill:none;stroke:#000000;stroke-width:0.234;stroke-dasharray:none"
       d="m 129.72742,30.966338 3.05241,5.371593 m 3.75073,7.024998 4.89247,8.185204"
       id="path7"
       sodipodi:nodetypes="cccc" />
    <path
       style="fill:none;stroke:#000000;stroke-width:0.234;stroke-dasharray:none"
       d="m 140.24841,27.424709 3.85389,6.429212 m 3.55108,5.902248 4.58919,7.677693"
       id="path8"
       sodipodi:nodetypes="cccc" />
    <path
       style="fill:none;stroke:#000000;stroke-width:0.234;stroke-dasharray:none"
       d="m 150.23172,23.654846 3.73799,6.110111 m 3.78438,5.697364 4.53446,7.900608"
       id="path12"
       sodipodi:nodetypes="cccc" />
    <path
       style="fill:none;stroke:#000000;stroke-width:0.234;stroke-dasharray:none"
       d="m 158.71978,19.938844 3.72311,6.036159 m 4.25013,6.890582 4.25012,6.890584"
       id="path13"
       sodipodi:nodetypes="cccc" />
    <path
       id="path15"
       style="fill:none;stroke:#000000;stroke-width:0.234"
       d="m 203.09697,26.378304 15.16414,14.426263 2.75083,6.368219 m 2.07334,4.799815 3.23808,7.496212 -27.64451,11.593559 -5.75461,-6.96377 m -3.95051,-4.78059 -4.2551,-5.149186 8.92167,-23.865903"
       sodipodi:nodetypes="cccccccccc" />
    <path
       style="fill:none;stroke:#000000;stroke-width:0.234;stroke-dasharray:none"
       d="M 17.71784,139.91071 38.572506,164.1903"
       id="path16"
       sodipodi:nodetypes="cc" />
    <path
       style="fill:none;stroke:#000000;stroke-width:0.234;stroke-dasharray:none"
       d="m 256.21357,26.318562 8.25685,28.341849"
       id="path17"
       sodipodi:nodetypes="cc" />
    <path
       style="fill:none;stroke:#000000;stroke-width:0.234;stroke-dasharray:none"
       d="m 212.5011,65.265592 2.25667,4.502411 m 2.2539,4.496867 2.25389,4.496868"
       id="path18"
       sodipodi:nodetypes="cccc" />
    <path
       style="fill:none;stroke:#000000;stroke-width:0.234;stroke-dasharray:none"
       d="m 226.32336,59.468811 1.89599,3.653627 m 1.93056,3.720231 2.60462,5.019159"
       id="path20"
       sodipodi:nodetypes="cccc" />
    <path
       style="fill:none;stroke:#000000;stroke-width:0.234;stroke-dasharray:none"
       d="m 24.193008,133.50541 7.142803,8.39458 m 3.577186,4.20409 10.719989,12.59867"
       id="path23"
       sodipodi:nodetypes="cccc" />
    <path
       style="fill:none;stroke:#000000;stroke-width:0.234;stroke-dasharray:none"
       d="m 29.335103,127.73789 8.332275,10.01854 m 3.451365,4.14985 10.13045,12.18063"
       id="path25"
       sodipodi:nodetypes="cccc" />
    <path
       style="fill:none;stroke:#000000;stroke-width:0.234;stroke-dasharray:none"
       d="m 34.313579,121.93479 5.978569,7.30375 m 5.340838,5.8145 11.558458,14.84616"
       id="path26"
       sodipodi:nodetypes="cccc" />
    <path
       style="fill:none;stroke:#000000;stroke-width:0.234"
       d="m 41.9683,111.87603 6.407521,7.63577 m 6.659997,7.93665 13.067518,15.57242"
       id="path28"
       sodipodi:nodetypes="cccc" />
    <path
       style="fill:none;stroke:#000000;stroke-width:0.234"
       d="m 46.850948,99.742497 10.951865,12.184653 m 6.387195,7.10616 15.63831,17.39863"
       id="path29"
       sodipodi:nodetypes="cccc" />
    <path
       style="fill:none;stroke:#000000;stroke-width:0.234"
       d="M 48.858931,82.473141 67.278502,104.865 m 5.82315,7.07894 16.143038,19.62438"
       id="path30"
       sodipodi:nodetypes="cccc" />
    <path
       style="fill:none;stroke:#000000;stroke-width:0.234"
       d="m 55.751139,66.381751 21.81241,32.339344 m 5.577412,8.269135 13.985853,20.7356"
       id="path31"
       sodipodi:nodetypes="cccc" />
    <path
       style="fill:none;stroke:#000000;stroke-width:0.234"
       d="m 70.132982,66.859747 17.465549,28.586246 m 4.500954,7.366807 12.964595,21.21944"
       id="path32"
       sodipodi:nodetypes="cccc" />
    <path
       style="fill:none;stroke:#000000;stroke-width:0.234"
       d="m 91.292057,65.451875 10.410313,24.005741 m 3.55732,8.203018 9.55752,22.039246"
       id="path33"
       sodipodi:nodetypes="cccc" />
    <path
       style="fill:none;stroke:#000000;stroke-width:0.234"
       d="m 106.92178,61.739671 9.08101,22.22803 m 3.59009,8.787647 8.69298,21.278222"
       id="path35"
       sodipodi:nodetypes="cccc" />
    <path
       style="fill:none;stroke:#000000;stroke-width:0.234"
       d="m 117.93688,59.123481 9.43157,21.525026 m 3.26479,7.451014 9.32275,21.276669"
       id="path36"
       sodipodi:nodetypes="cccc" />
    <path
       style="fill:none;stroke:#000000;stroke-width:0.234"
       d="m 131.29394,55.399855 8.97343,20.821209 m 3.15195,7.31352 9.07688,21.061246"
       id="path37"
       sodipodi:nodetypes="cccc" />
    <path
       style="fill:none;stroke:#000000;stroke-width:0.234"
       d="m 141.42303,51.548133 9.51995,20.430458 m 3.03003,6.502658 10.18314,21.853701"
       id="path38"
       sodipodi:nodetypes="cccc" />
    <path
       style="fill:none;stroke:#000000;stroke-width:0.234"
       d="m 152.24257,47.433862 9.31427,19.458503 m 3.46359,7.235802 10.61144,22.168419"
       id="path39"
       sodipodi:nodetypes="cccc" />
    <path
       style="fill:none;stroke:#000000;stroke-width:0.234"
       d="m 162.28855,43.362927 9.41423,18.886075 m 3.36354,6.747685 11.98431,24.04197"
       id="path40"
       sodipodi:nodetypes="cccc" />
    <path
       style="fill:none;stroke:#000000;stroke-width:0.234"
       d="m 170.94314,39.756169 9.30687,17.348054 m 3.90921,7.286783 13.21607,24.634837"
       id="path41"
       sodipodi:nodetypes="cccc" />
    <path
       style="fill:none;stroke:#000000;stroke-width:0.234"
       d="m 181.24643,35.462321 0.94285,5.079596 m 1.01161,5.450087 1.51774,8.176822"
       id="path42"
       sodipodi:nodetypes="cccc" />
    <path
       style="fill:none;stroke:#000000;stroke-width:0.234"
       d="m 215.3899,20.575854 0.84022,5.91967 m 0.78232,5.511715 1.24867,8.797329"
       id="path43"
       sodipodi:nodetypes="cccc" />
    <path
       style="fill:none;stroke:#000000;stroke-width:0.234"
       d="m 198.67885,71.06237 2.22576,4.826455 m 2.2152,4.803564 2.2152,4.803563"
       id="path44"
       sodipodi:nodetypes="cccc" />
    <path
       style="fill:none;stroke:#000000;stroke-width:0.234"
       d="m 228.76315,24.112585 5.74291,18.686801 m 1.86731,6.076023 5.59002,18.18934"
       id="path45"
       sodipodi:nodetypes="cccc" />
    <path
       style="fill:none;stroke:#000000;stroke-width:0.234"
       d="m 243.3343,26.318562 3.25953,12.208628 m 1.82253,6.826318 4.30423,16.121593"
       id="path46"
       sodipodi:nodetypes="cccc" />
  </g>
</svg>
