<?xml version="1.0" encoding="UTF-8" standalone="no"?>
<!-- Created with Inkscape (http://www.inkscape.org/) -->

<svg
   width="300mm"
   height="300mm"
   viewBox="0 0 300 300"
   version="1.1"
   id="svg1"
   inkscape:version="1.4.2 (f4327f4, 2025-05-13)"
   sodipodi:docname="path brace prototype 3&amp;4.svg"
   xmlns:inkscape="http://www.inkscape.org/namespaces/inkscape"
   xmlns:sodipodi="http://sodipodi.sourceforge.net/DTD/sodipodi-0.dtd"
   xmlns="http://www.w3.org/2000/svg"
   xmlns:svg="http://www.w3.org/2000/svg">
  <sodipodi:namedview
     id="namedview1"
     pagecolor="#ffffff"
     bordercolor="#000000"
     borderopacity="0.25"
     inkscape:showpageshadow="2"
     inkscape:pageopacity="0.0"
     inkscape:pagecheckerboard="0"
     inkscape:deskcolor="#d1d1d1"
     inkscape:document-units="mm"
     inkscape:zoom="4.726981"
     inkscape:cx="689.44639"
     inkscape:cy="93.823098"
     inkscape:window-width="1920"
     inkscape:window-height="974"
     inkscape:window-x="-11"
     inkscape:window-y="-11"
     inkscape:window-maximized="1"
     inkscape:current-layer="layer1" />
  <defs
     id="defs1" />
  <g
     inkscape:label="Laag 1"
     inkscape:groupmode="layer"
     id="layer1">
    <path
       id="path4147"
       style="fill:none;fill-rule:evenodd;stroke:#000000;stroke-width:0.234;stroke-linecap:butt;stroke-linejoin:miter;stroke-dasharray:none;stroke-opacity:1"
       d="M 195.82823,107.34221 184.31821,93.94975 c 20.91037,-6.66887 47.16247,-13.435325 76.0804,-18.986658 14.88875,-2.858189 8.33729,-32.764556 -2.92884,-31.066411 -8.38751,1.26425 -43.95084,-19.210928 -66.19603,-34.9546839 -1.88623,9.2526189 -12.2007,15.7293229 -17.49103,5.5663629 -7.51503,1.616655 -19.33052,2.061976 -26.6391,5.991935 C 126.33334,31.690357 100.38372,41.717072 90.75157,39.755562 87.58026,53.125476 74.81998,52.594284 66.07445,49.053964 61.064298,57.073423 54.824159,67.107897 50.338879,77.251479 47.312795,84.09505 48.0232,98.766248 45.609777,105.2246 c -3.147455,8.42263 -17.166687,23.47283 -21.416769,28.28081 -11.334535,9.90348 -13.614035,15.40569 -4.688064,27.10101 11.320152,14.83232 21.768693,0.97667 31.74425,-6.51951 26.107374,-19.29344 71.097496,-39.37418 124.382676,-57.790324 l 11.58152,14.322234"
       sodipodi:nodetypes="ccssccsccssssscc" />
    <path
       id="path4147-6"
       style="fill:none;fill-rule:evenodd;stroke:#000000;stroke-width:0.233933px;stroke-linecap:butt;stroke-linejoin:miter;stroke-opacity:1"
       d="m 219.88435,216.05722 -11.63576,-13.5274 c 20.91037,-6.66887 47.28937,-13.63176 76.2073,-19.18309 14.88875,-2.85819 2.22152,-45.91731 -4.30726,-48.9012 -6.4266,-2.9372 -38.21874,-1.61362 -60.46393,-17.35737 -1.88623,9.25262 -15.12954,15.88764 -20.41987,5.72468 -7.51503,1.61665 -19.33052,2.06197 -26.6391,5.99193 -20.81027,11.19006 -46.75989,21.21678 -56.39205,19.25527 -3.17131,13.36991 -15.93159,12.83872 -24.677117,9.2984 -32.531827,52.07181 -55.784634,94.7286 -46.569506,111.55246 2.349666,4.28974 36.511726,14.9625 40.898026,9.92976 20.313327,-23.30707 47.706257,-50.73521 113.873407,-73.60356 l 10.79927,13.32436"
       sodipodi:nodetypes="ccssccsccsscc" />
    <path
       style="fill:none;stroke:#000000;stroke-width:0.137894;stroke-opacity:0.98"
       d="m 242.39782,127.53462 c -3.19306,1.09619 -10.08801,4.76347 -18.48966,9.46919 m -10.3905,5.92388 c -5.40784,3.07509 -9.93044,5.70383 -15.05418,8.63167 m -5.94627,3.37128 c -4.18617,2.38138 -6.47986,3.65671 -10.05503,5.60504 m -4.54971,2.43446 c -3.33779,1.7464 -6.18951,3.13397 -8.38497,4.02629 -3.55374,1.4444 -6.09889,1.96033 -10.35495,3.10971 m -8.60596,2.18589 c -5.70894,1.2331 -10.61771,2.21655 -18.23262,2.91163 m -13.07108,1.00786 c -5.67622,0.29252 -11.36473,0.36142 -18.04956,0.002 m -7.164089,-0.47509 c -8.352747,-0.61482 -8.958391,-0.98865 -12.704258,-1.81788"
       id="path7-6"
       sodipodi:nodetypes="cccccccsccccccc" />
    <path
       style="fill:none;stroke:#000000;stroke-width:0.146305;stroke-opacity:0.98"
       d="m 242.39782,127.53462 c 5.99284,9.87382 19.0771,36.93724 25.59068,46.72053"
       id="path8-1"
       sodipodi:nodetypes="cc" />
    <path
       style="fill:none;stroke:#000000;stroke-width:0.131253;stroke-opacity:0.98"
       d="m 201.66462,149.68446 c 5.60406,9.76551 20.50754,29.90793 24.80496,36.73725"
       id="path12-8"
       sodipodi:nodetypes="cc" />
    <path
       style="fill:none;stroke:#000000;stroke-width:0.137894;stroke-opacity:0.98"
       d="m 169.5275,166.99643 c 5.71285,9.87856 13.20694,23.75163 17.80093,30.83543"
       id="path13-4"
       sodipodi:nodetypes="cc" />
    <path
       style="fill:none;stroke:#000000;stroke-width:0.139108;stroke-opacity:0.98"
       d="m 190.34425,156.12112 c 7.6353,13.10504 14.76079,23.72324 21.10594,33.89593"
       id="path14-9"
       sodipodi:nodetypes="cc" />
    <path
       style="fill:none;stroke:#000000;stroke-width:0.253711;stroke-opacity:0.98"
       d="m 73.459869,187.02099 c 11.089437,16.94809 23.452823,34.54039 34.614331,49.5229"
       id="path15-6"
       sodipodi:nodetypes="cc" />
    <path
       style="fill:none;stroke:#000000;stroke-width:0.223952;stroke-opacity:0.98"
       d="m 111.51144,176.46787 c 12.2927,21.09713 16.71413,23.12551 27.90508,39.18351"
       id="path16-3"
       sodipodi:nodetypes="cc" />
    <path
       style="fill:none;stroke:#000000;stroke-width:0.221892;stroke-opacity:0.98"
       d="m 82.618423,174.19152 c 10.439939,16.03085 28.360317,36.26058 39.982307,51.55298"
       id="path18-8"
       sodipodi:nodetypes="cc" />
    <path
       style="fill:none;stroke:#000000;stroke-width:0.209519;stroke-opacity:0.98"
       d="m 51.490197,228.88323 c 10.972182,20.68778 13.390141,19.66443 22.492578,35.72845"
       id="path19-8"
       sodipodi:nodetypes="cc" />
    <path
       style="fill:none;stroke:#000000;stroke-width:0.191029;stroke-opacity:0.98"
       d="m 57.869331,215.42974 c 10.307533,18.30654 18.447921,28.76885 27.831606,42.70284"
       id="path20-2"
       sodipodi:nodetypes="cc" />
    <path
       style="fill:none;fill-rule:evenodd;stroke:#000000;stroke-width:0.145698;stroke-opacity:0.98"
       d="m 104.35027,159.3463 7.16117,17.12157"
       id="path1-1" />
    <path
       style="fill:none;fill-rule:evenodd;stroke:#000000;stroke-width:0.141528;stroke-opacity:0.98"
       d="m 126.54392,147.37757 12.8726,27.00385"
       id="path2-3" />
    <path
       style="fill:none;fill-rule:evenodd;stroke:#000000;stroke-width:0.140278;stroke-opacity:0.98"
       d="m 155.41332,137.24757 14.11418,29.74886"
       id="path3-5" />
    <path
       style="fill:none;fill-rule:evenodd;stroke:#000000;stroke-width:0.140278;stroke-opacity:0.98"
       d="m 172.62573,128.80477 17.73709,27.34822"
       id="path4-9" />
    <path
       style="fill:none;fill-rule:evenodd;stroke:#000000;stroke-width:0.140278;stroke-opacity:0.98"
       d="m 192.44105,123.9534 13.43182,23.35176"
       id="path5-8" />
    <path
       style="fill:none;stroke:#000000;stroke-width:0.191037;stroke-opacity:0.98"
       d="m 63.456795,204.79773 c 10.348974,18.23478 18.522091,28.65609 27.943502,42.53546"
       id="path6"
       sodipodi:nodetypes="cc" />
    <path
       style="fill:none;stroke:#000000;stroke-width:0.21017;stroke-opacity:0.98"
       d="m 67.516994,197.46401 c 11.970234,19.08094 21.423744,29.98584 32.321104,44.50926"
       id="path9"
       sodipodi:nodetypes="cc" />
    <path
       style="fill:none;stroke:#000000;stroke-width:0.131253;stroke-opacity:0.98"
       d="m 211.45019,143.74059 c 5.60406,9.76551 20.50754,29.90793 24.80496,36.73725"
       id="path10"
       sodipodi:nodetypes="cc" />
    <path
       style="fill:none;stroke:#000000;stroke-width:0.131253;stroke-opacity:0.98"
       d="m 229.4854,133.75337 c 5.60406,9.76551 20.50754,29.90793 24.80496,36.73725"
       id="path11"
       sodipodi:nodetypes="cc" />
    <path
       style="fill:none;stroke:#000000;stroke-width:0.141772;stroke-opacity:0.98"
       d="m 253.13296,129.99743 c 5.94041,9.35333 18.9102,34.99014 25.36679,44.25772"
       id="path21"
       sodipodi:nodetypes="cc" />
    <path
       style="fill:none;stroke:#000000;stroke-width:0.098218;stroke-opacity:0.98"
       d="m 267.9885,132.23635 c 3.89559,6.84554 12.4009,25.60867 16.635,32.39144"
       id="path22"
       sodipodi:nodetypes="cc" />
    <path
       style="fill:none;fill-rule:evenodd;stroke:#000000;stroke-width:0.118793;stroke-opacity:0.98"
       d="m 139.97992,143.45575 10.99274,22.27809"
       id="path24" />
    <path
       style="fill:none;stroke:#000000;stroke-width:0.234;stroke-dasharray:none"
       d="M 66.074448,49.053964 70.132982,66.859747 76.368506,51.199539 91.292058,65.451875 86.623156,47.507886 106.92178,61.739671 90.75157,39.755562"
       id="path1"
       sodipodi:nodetypes="ccccccc" />
    <path
       style="fill:none;stroke:#000000;stroke-width:0.234;stroke-dasharray:none"
       d="m 55.751141,66.381752 14.381841,0.477995 21.159076,-1.407872 36.140692,-8.583752"
       id="path2"
       sodipodi:nodetypes="cccc" />
    <path
       style="fill:none;stroke:#000000;stroke-width:0.233046;stroke-dasharray:none"
       d="m 105.32027,38.04361 12.61661,21.079871"
       id="path3"
       sodipodi:nodetypes="cc" />
    <path
       style="fill:none;stroke:#000000;stroke-width:0.234;stroke-dasharray:none"
       d="m 127.43275,56.868123 27.98057,-10.639978 34.9495,-14.565032 23.3549,-9.692534"
       id="path4" />
    <path
       style="fill:none;stroke:#000000;stroke-width:0.234;stroke-dasharray:none"
       d="m 117.51006,34.05381 13.78388,21.346046"
       id="path5"
       sodipodi:nodetypes="cc" />
    <path
       style="fill:none;stroke:#000000;stroke-width:0.234;stroke-dasharray:none"
       d="m 127.95094,29.815208 13.47209,21.732925"
       id="path7" />
    <path
       style="fill:none;stroke:#000000;stroke-width:0.234;stroke-dasharray:none"
       d="m 138.11445,25.124222 14.12812,22.30964"
       id="path8" />
    <path
       style="fill:none;stroke:#000000;stroke-width:0.234;stroke-dasharray:none"
       d="m 147.14361,20.500295 14.76212,23.022171"
       id="path12" />
    <path
       style="fill:none;stroke:#000000;stroke-width:0.234;stroke-dasharray:none"
       d="m 156.54589,17.357699 14.39725,22.39847"
       id="path13"
       sodipodi:nodetypes="cc" />
    <path
       style="fill:none;stroke:#000000;stroke-width:0.234;stroke-dasharray:none"
       d="m 170.94314,39.756169 2.83957,-25.247809 7.46372,20.953962 1.91282,-16.206562 10.48105,11.047163 -4.88335,-15.526779 14.34002,11.602161 -11.82323,-17.4363079"
       id="path14"
       sodipodi:nodetypes="cccccccc" />
    <path
       id="path15"
       style="fill:none;stroke:#000000;stroke-width:0.234"
       transform="translate(14.114403,16.791902)"
       d="M 113.31835,78.888183 88.107064,88.153348 77.177655,72.086055 V 48.659973 L 92.807377,44.947769 110.2876,58.371304 Z"
       sodipodi:nodetypes="ccccccc" />
    <path
       style="fill:none;stroke:#000000;stroke-width:0.234;stroke-dasharray:none"
       d="M 17.71784,139.91071 38.572506,164.1903"
       id="path16"
       sodipodi:nodetypes="cc" />
    <path
       style="fill:none;stroke:#000000;stroke-width:0.234;stroke-dasharray:none"
       d="m 257.46977,43.896682 4.29568,30.709901"
       id="path17" />
    <path
       style="fill:none;stroke:#000000;stroke-width:0.234;stroke-dasharray:none"
       d="m 114.82711,100.31267 6.90575,16.4356"
       id="path18" />
    <path
       style="fill:none;stroke:#000000;stroke-width:0.234;stroke-dasharray:none"
       d="m 102.22147,104.94525 7.5434,16.97252"
       id="path19" />
    <path
       style="fill:none;stroke:#000000;stroke-width:0.234;stroke-dasharray:none"
       d="m 127.43275,95.680084 6.43042,16.100756"
       id="path20" />
    <path
       style="fill:none;stroke:#000000;stroke-width:0.234;stroke-dasharray:none"
       d="m 24.193008,133.50541 21.439978,25.19734"
       id="path23" />
    <path
       style="fill:none;stroke:#000000;stroke-width:0.234;stroke-dasharray:none"
       d="m 29.335103,127.73789 21.91409,26.34902"
       id="path25" />
    <path
       style="fill:none;stroke:#000000;stroke-width:0.234;stroke-dasharray:none"
       d="M 34.313579,121.93479 57.191444,149.8992"
       id="path26" />
  </g>
</svg>
