<?xml version="1.0" encoding="UTF-8" standalone="no"?>
<!-- Created with Inkscape (http://www.inkscape.org/) -->

<svg
   width="300mm"
   height="300mm"
   viewBox="0 0 300 300"
   version="1.1"
   id="svg1"
   inkscape:version="1.4.2 (f4327f4, 2025-05-13)"
   xmlns:inkscape="http://www.inkscape.org/namespaces/inkscape"
   xmlns:sodipodi="http://sodipodi.sourceforge.net/DTD/sodipodi-0.dtd"
   xmlns="http://www.w3.org/2000/svg"
   xmlns:svg="http://www.w3.org/2000/svg">
  <sodipodi:namedview
     id="namedview1"
     pagecolor="#ffffff"
     bordercolor="#000000"
     borderopacity="0.25"
     inkscape:showpageshadow="2"
     inkscape:pageopacity="0.0"
     inkscape:pagecheckerboard="0"
     inkscape:deskcolor="#d1d1d1"
     inkscape:document-units="mm"
     inkscape:zoom="0.41781004"
     inkscape:cx="410.47362"
     inkscape:cy="494.24374"
     inkscape:window-width="1280"
     inkscape:window-height="649"
     inkscape:window-x="-8"
     inkscape:window-y="-8"
     inkscape:window-maximized="1"
     inkscape:current-layer="layer1" />
  <defs
     id="defs1" />
  <g
     inkscape:label="Laag 1"
     inkscape:groupmode="layer"
     id="layer1">
    <path
       id="path4147"
       style="fill:none;fill-rule:evenodd;stroke:#000000;stroke-width:0.233933px;stroke-linecap:butt;stroke-linejoin:miter;stroke-opacity:1"
       d="M 195.82823,107.34221 184.31821,93.94975 c 20.91037,-6.66887 45.73763,-13.356167 74.65556,-18.9075 14.88875,-2.858189 2.22152,-45.917306 -4.30726,-48.901198 -6.4266,-2.937198 -38.21874,-1.613615 -60.46393,-17.3573705 -1.88623,9.2526185 -15.12954,15.8876385 -20.41987,5.7246785 -7.51503,1.616655 -19.33052,2.061976 -26.6391,5.991935 C 126.33334,31.690357 100.38372,41.717072 90.75157,39.755562 87.58026,53.125476 74.81998,52.594284 66.07445,49.053964 33.542623,101.12577 10.289816,143.78256 19.504944,160.60642 c 2.349666,4.28974 36.511726,14.9625 40.898026,9.92976 20.31333,-23.30707 49.06175,-51.37125 115.2289,-74.239594 l 11.58152,14.322234"
       sodipodi:nodetypes="ccssccsccsscc" />
    <path
       style="fill:none;stroke:#000000;stroke-width:0.137894;stroke-opacity:0.98"
       d="m 216.9157,19.230138 c -3.19306,1.096191 -10.08801,4.763474 -18.48966,9.469191 m -10.3905,5.923881 c -5.40784,3.075089 -9.93044,5.703836 -15.05418,8.631678 m -5.94627,3.371278 c -4.18617,2.381374 -6.47986,3.656706 -10.05503,5.605038 m -4.54971,2.434457 c -3.33779,1.746404 -6.18951,3.133969 -8.38497,4.026296 -3.55374,1.444393 -6.09889,1.960327 -10.35495,3.10971 m -8.60596,2.185882 c -5.70894,1.233101 -10.61771,2.216557 -18.23262,2.911633 m -13.07107,1.007859 c -5.676224,0.292527 -11.364737,0.361423 -18.049562,0.0018 m -7.16409,-0.475092 C 60.214381,66.818928 59.608737,66.445101 55.86287,65.615874"
       id="path7"
       sodipodi:nodetypes="cccccccsccccccc" />
    <path
       style="fill:none;stroke:#000000;stroke-width:0.146305;stroke-opacity:0.98"
       d="m 216.9157,19.230138 c 5.99284,9.873829 10.17374,15.727917 16.68732,25.511206 m 6.33047,9.00799 c 5.24096,7.803272 8.9995,14.427528 14.41336,22.194807"
       id="path8"
       sodipodi:nodetypes="cccc" />
    <path
       style="fill:none;stroke:#000000;stroke-width:0.131253;stroke-opacity:0.98"
       d="m 176.1825,41.379983 c 5.60406,9.765511 8.36663,14.23667 12.66405,21.065991 m 4.3873,7.676572 c 5.67911,8.274079 5.86715,8.836329 11.74403,17.632128"
       id="path12"
       sodipodi:nodetypes="cccc" />
    <path
       style="fill:none;stroke:#000000;stroke-width:0.137894;stroke-opacity:0.98"
       d="m 144.04538,58.691957 c 5.71285,9.878558 9.724,16.785744 14.31799,23.869546 m 4.66312,6.95632 c 5.98946,8.6592 -0.0762,0.0175 6.12218,9.22325"
       id="path13"
       sodipodi:nodetypes="cccc" />
    <path
       style="fill:none;stroke:#000000;stroke-width:0.139108;stroke-opacity:0.98"
       d="m 164.86213,47.816645 c 7.6353,13.105037 5.11742,10.296284 11.46257,20.468974 m 5.34679,7.992425 c 3.7976,6.172495 4.70982,7.80865 9.85525,15.393879"
       id="path14"
       sodipodi:nodetypes="cccc" />
    <path
       style="fill:none;stroke:#000000;stroke-width:0.137894;stroke-opacity:0.98"
       d="m 47.977756,78.716513 c 5.666334,9.7981 11.983614,19.96864 17.686774,28.630387 m 5.41195,8.03184 c 5.98946,8.6592 11.88195,17.41926 18.08002,26.62448"
       id="path15"
       sodipodi:nodetypes="cccc" />
    <path
       style="fill:none;stroke:#000000;stroke-width:0.137894;stroke-opacity:0.98"
       d="m 86.02933,68.163392 c 7.54058,13.039023 10.25277,14.292658 17.1175,24.217261 m 6.53846,9.408687 c 4.1145,5.91106 8.35065,12.01006 12.36799,17.9765"
       id="path16"
       sodipodi:nodetypes="cccc" />
    <path
       style="fill:none;stroke:#000000;stroke-width:0.137894;stroke-opacity:0.98"
       d="m 113.9344,66.076939 c 5.448,9.420555 10.04189,15.925664 14.25992,22.707584 m 4.7212,8.11829 c 4.93681,9.214437 2.13357,3.969217 8.33164,13.174417"
       id="path17"
       sodipodi:nodetypes="cccc" />
    <path
       style="fill:none;stroke:#000000;stroke-width:0.137894;stroke-opacity:0.98"
       d="m 57.13631,65.887045 c 6.1138,10.571861 16.60827,23.912748 23.4143,33.997618 m 5.47872,7.711627 c 5.98945,8.65919 8.94597,16.03718 15.14405,25.24238"
       id="path18"
       sodipodi:nodetypes="cccc" />
    <path
       style="fill:none;stroke:#000000;stroke-width:0.137894;stroke-opacity:0.98"
       d="m 26.008084,120.57875 c 7.540581,13.03903 9.202312,12.39404 15.457919,22.51882 m 4.49981,8.02844 c 6.010195,9.4111 10.467717,14.65784 14.437237,19.41054"
       id="path19"
       sodipodi:nodetypes="cccc" />
    <path
       style="fill:none;stroke:#000000;stroke-width:0.137894;stroke-opacity:0.98"
       d="M 37.254373,97.823883 C 44.794958,110.8629 50.750146,118.31479 57.61488,128.23941 m 5.73276,8.38857 c 4.20197,6.28174 7.36306,11.28219 11.87087,17.9771"
       id="path20"
       sodipodi:nodetypes="cccc" />
    <path
       id="path23"
       style="fill:none;fill-rule:evenodd;stroke:#000000;stroke-width:0.116277;stroke-opacity:0.98"
       d="m 220.28095,61.230009 c 5.00546,-3.770363 -0.97493,-8.411639 -4.07953,-13.642868 -1.86716,-3.146084 -5.35272,-5.295547 -7.41318,-5.295566 -5.48653,6.8e-5 -9.93421,4.759391 -9.93425,10.630333 0.0121,5.522953 3.97128,10.117506 9.11506,10.572992 0.26843,0.03695 0.5433,0.05616 0.81919,0.05734 0.27609,-0.0012 1.06276,-0.02052 1.33143,-0.05734"
       sodipodi:nodetypes="csccccc" />
    <path
       style="fill:none;fill-rule:evenodd;stroke:#000000;stroke-width:0.143099;stroke-opacity:0.98"
       d="M 79.154845,50.958503 86.029328,68.16339"
       id="path1" />
    <path
       style="fill:none;fill-rule:evenodd;stroke:#000000;stroke-width:0.141228;stroke-opacity:0.98"
       d="M 101.12249,39.060307 113.9344,66.076939"
       id="path2" />
    <path
       style="fill:none;fill-rule:evenodd;stroke:#000000;stroke-width:0.140278;stroke-opacity:0.98"
       d="m 129.9312,28.943092 14.11418,29.748863"
       id="path3" />
    <path
       style="fill:none;fill-rule:evenodd;stroke:#000000;stroke-width:0.140278;stroke-opacity:0.98"
       d="M 147.14361,20.500294 164.8807,47.848516"
       id="path4" />
    <path
       style="fill:none;fill-rule:evenodd;stroke:#000000;stroke-width:0.140278;stroke-opacity:0.98"
       d="m 166.95893,15.648925 13.43182,23.35176"
       id="path5" />
    <path
       id="path4147-6"
       style="fill:none;fill-rule:evenodd;stroke:#000000;stroke-width:0.233933px;stroke-linecap:butt;stroke-linejoin:miter;stroke-opacity:1"
       d="m 219.88435,216.05722 -11.63576,-13.5274 c 20.91037,-6.66887 47.28937,-13.63176 76.2073,-19.18309 14.88875,-2.85819 2.22152,-45.91731 -4.30726,-48.9012 -6.4266,-2.9372 -38.21874,-1.61362 -60.46393,-17.35737 -1.88623,9.25262 -15.12954,15.88764 -20.41987,5.72468 -7.51503,1.61665 -19.33052,2.06197 -26.6391,5.99193 -20.81027,11.19006 -46.75989,21.21678 -56.39205,19.25527 -3.17131,13.36991 -15.93159,12.83872 -24.677117,9.2984 -32.531827,52.07181 -55.784634,94.7286 -46.569506,111.55246 2.349666,4.28974 36.511726,14.9625 40.898026,9.92976 20.313327,-23.30707 47.706257,-50.73521 113.873407,-73.60356 l 10.79927,13.32436"
       sodipodi:nodetypes="ccssccsccsscc" />
    <path
       style="fill:none;stroke:#000000;stroke-width:0.137894;stroke-opacity:0.98"
       d="m 242.39782,127.53462 c -3.19306,1.09619 -10.08801,4.76347 -18.48966,9.46919 m -10.3905,5.92388 c -5.40784,3.07509 -9.93044,5.70383 -15.05418,8.63167 m -5.94627,3.37128 c -4.18617,2.38138 -6.47986,3.65671 -10.05503,5.60504 m -4.54971,2.43446 c -3.33779,1.7464 -6.18951,3.13397 -8.38497,4.02629 -3.55374,1.4444 -6.09889,1.96033 -10.35495,3.10971 m -8.60596,2.18589 c -5.70894,1.2331 -10.61771,2.21655 -18.23262,2.91163 m -13.07108,1.00786 c -5.67622,0.29252 -11.36473,0.36142 -18.04956,0.002 m -7.164089,-0.47509 c -8.352747,-0.61482 -8.958391,-0.98865 -12.704258,-1.81788"
       id="path7-6"
       sodipodi:nodetypes="cccccccsccccccc" />
    <path
       style="fill:none;stroke:#000000;stroke-width:0.146305;stroke-opacity:0.98"
       d="m 242.39782,127.53462 c 5.99284,9.87382 19.0771,36.93724 25.59068,46.72053"
       id="path8-1"
       sodipodi:nodetypes="cc" />
    <path
       style="fill:none;stroke:#000000;stroke-width:0.131253;stroke-opacity:0.98"
       d="m 201.66462,149.68446 c 5.60406,9.76551 20.50754,29.90793 24.80496,36.73725"
       id="path12-8"
       sodipodi:nodetypes="cc" />
    <path
       style="fill:none;stroke:#000000;stroke-width:0.137894;stroke-opacity:0.98"
       d="m 169.5275,166.99643 c 5.71285,9.87856 13.20694,23.75163 17.80093,30.83543"
       id="path13-4"
       sodipodi:nodetypes="cc" />
    <path
       style="fill:none;stroke:#000000;stroke-width:0.139108;stroke-opacity:0.98"
       d="m 190.34425,156.12112 c 7.6353,13.10504 14.76079,23.72324 21.10594,33.89593"
       id="path14-9"
       sodipodi:nodetypes="cc" />
    <path
       style="fill:none;stroke:#000000;stroke-width:0.253711;stroke-opacity:0.98"
       d="m 73.459869,187.02099 c 11.089437,16.94809 23.452823,34.54039 34.614331,49.5229"
       id="path15-6"
       sodipodi:nodetypes="cc" />
    <path
       style="fill:none;stroke:#000000;stroke-width:0.223952;stroke-opacity:0.98"
       d="m 111.51144,176.46787 c 12.2927,21.09713 16.71413,23.12551 27.90508,39.18351"
       id="path16-3"
       sodipodi:nodetypes="cc" />
    <path
       style="fill:none;stroke:#000000;stroke-width:0.221892;stroke-opacity:0.98"
       d="m 82.618423,174.19152 c 10.439939,16.03085 28.360317,36.26058 39.982307,51.55298"
       id="path18-8"
       sodipodi:nodetypes="cc" />
    <path
       style="fill:none;stroke:#000000;stroke-width:0.209519;stroke-opacity:0.98"
       d="m 51.490197,228.88323 c 10.972182,20.68778 13.390141,19.66443 22.492578,35.72845"
       id="path19-8"
       sodipodi:nodetypes="cc" />
    <path
       style="fill:none;stroke:#000000;stroke-width:0.191029;stroke-opacity:0.98"
       d="m 57.869331,215.42974 c 10.307533,18.30654 18.447921,28.76885 27.831606,42.70284"
       id="path20-2"
       sodipodi:nodetypes="cc" />
    <path
       style="fill:none;fill-rule:evenodd;stroke:#000000;stroke-width:0.145698;stroke-opacity:0.98"
       d="m 104.35027,159.3463 7.16117,17.12157"
       id="path1-1" />
    <path
       style="fill:none;fill-rule:evenodd;stroke:#000000;stroke-width:0.141528;stroke-opacity:0.98"
       d="m 126.54392,147.37757 12.8726,27.00385"
       id="path2-3" />
    <path
       style="fill:none;fill-rule:evenodd;stroke:#000000;stroke-width:0.140278;stroke-opacity:0.98"
       d="m 155.41332,137.24757 14.11418,29.74886"
       id="path3-5" />
    <path
       style="fill:none;fill-rule:evenodd;stroke:#000000;stroke-width:0.140278;stroke-opacity:0.98"
       d="m 172.62573,128.80477 17.73709,27.34822"
       id="path4-9" />
    <path
       style="fill:none;fill-rule:evenodd;stroke:#000000;stroke-width:0.140278;stroke-opacity:0.98"
       d="m 192.44105,123.9534 13.43182,23.35176"
       id="path5-8" />
    <path
       style="fill:none;stroke:#000000;stroke-width:0.191037;stroke-opacity:0.98"
       d="m 63.456795,204.79773 c 10.348974,18.23478 18.522091,28.65609 27.943502,42.53546"
       id="path6"
       sodipodi:nodetypes="cc" />
    <path
       style="fill:none;stroke:#000000;stroke-width:0.21017;stroke-opacity:0.98"
       d="m 67.516994,197.46401 c 11.970234,19.08094 21.423744,29.98584 32.321104,44.50926"
       id="path9"
       sodipodi:nodetypes="cc" />
    <path
       style="fill:none;stroke:#000000;stroke-width:0.131253;stroke-opacity:0.98"
       d="m 211.45019,143.74059 c 5.60406,9.76551 20.50754,29.90793 24.80496,36.73725"
       id="path10"
       sodipodi:nodetypes="cc" />
    <path
       style="fill:none;stroke:#000000;stroke-width:0.131253;stroke-opacity:0.98"
       d="m 229.4854,133.75337 c 5.60406,9.76551 20.50754,29.90793 24.80496,36.73725"
       id="path11"
       sodipodi:nodetypes="cc" />
    <path
       style="fill:none;stroke:#000000;stroke-width:0.141772;stroke-opacity:0.98"
       d="m 253.13296,129.99743 c 5.94041,9.35333 18.9102,34.99014 25.36679,44.25772"
       id="path21"
       sodipodi:nodetypes="cc" />
    <path
       style="fill:none;stroke:#000000;stroke-width:0.098218;stroke-opacity:0.98"
       d="m 267.9885,132.23635 c 3.89559,6.84554 12.4009,25.60867 16.635,32.39144"
       id="path22"
       sodipodi:nodetypes="cc" />
    <path
       style="fill:none;fill-rule:evenodd;stroke:#000000;stroke-width:0.118793;stroke-opacity:0.98"
       d="m 139.97992,143.45575 10.99274,22.27809"
       id="path24" />
    <path
       style="fill:none;stroke:#000000;stroke-width:0.144191;stroke-opacity:0.98"
       d="m 45.29142,245.58172 c 8.509938,12.633 10.385288,12.00809 17.445066,21.81759"
       id="path25"
       sodipodi:nodetypes="cc" />
  </g>
</svg>
