<?xml version="1.0" encoding="UTF-8" standalone="no"?>
<!-- Created with Inkscape (http://www.inkscape.org/) -->

<svg
   width="300mm"
   height="300mm"
   viewBox="0 0 300 300"
   version="1.1"
   id="svg1"
   xml:space="preserve"
   inkscape:version="1.4.2 (f4327f4, 2025-05-13)"
   sodipodi:docname="v1Z eiking.svg"
   xmlns:inkscape="http://www.inkscape.org/namespaces/inkscape"
   xmlns:sodipodi="http://sodipodi.sourceforge.net/DTD/sodipodi-0.dtd"
   xmlns="http://www.w3.org/2000/svg"
   xmlns:svg="http://www.w3.org/2000/svg"><sodipodi:namedview
     id="namedview1"
     pagecolor="#ffffff"
     bordercolor="#000000"
     borderopacity="0.25"
     inkscape:showpageshadow="2"
     inkscape:pageopacity="0.0"
     inkscape:pagecheckerboard="0"
     inkscape:deskcolor="#d1d1d1"
     inkscape:document-units="mm"
     inkscape:zoom="0.50835204"
     inkscape:cx="687.51568"
     inkscape:cy="758.33275"
     inkscape:window-width="1280"
     inkscape:window-height="649"
     inkscape:window-x="-8"
     inkscape:window-y="-8"
     inkscape:window-maximized="1"
     inkscape:current-layer="layer1" /><defs
     id="defs1" /><g
     inkscape:label="Laag 1"
     inkscape:groupmode="layer"
     id="layer1"><path
       style="fill:none;stroke:#000000;stroke-width:0.112904;stroke-opacity:0.98"
       d="m 31.946469,159.7249 c -2.208178,75.81412 -2.208178,75.81412 -2.208178,75.81412"
       id="path2" /><path
       style="fill:none;stroke:#000000;stroke-width:0.112904;stroke-opacity:0.98"
       d="m 52.556134,159.7249 c -2.208178,75.81412 -2.208178,75.81412 -2.208178,75.81412"
       id="path3" /><path
       style="fill:none;stroke:#000000;stroke-width:0.112904;stroke-opacity:0.98"
       d="m 79.054272,159.7249 c -2.20818,75.81412 -2.20818,75.81412 -2.20818,75.81412"
       id="path4" /><path
       style="fill:none;stroke:#000000;stroke-width:0.112904;stroke-opacity:0.98"
       d="m 109.96877,159.7249 c -2.20818,75.81412 -2.20818,75.81412 -2.20818,75.81412"
       id="path5" /><path
       style="fill:none;stroke:#000000;stroke-width:0.112904;stroke-opacity:0.98"
       d="m 161.19702,159.7249 c -2.20818,75.81412 -2.20818,75.81412 -2.20818,75.81412"
       id="path6" /><path
       style="fill:none;stroke:#000000;stroke-width:0.112904;stroke-opacity:0.98"
       d="m 196.52788,159.7249 c -2.20818,75.81412 -2.20818,75.81412 -2.20818,75.81412"
       id="path7" /><path
       style="fill:none;stroke:#000000;stroke-width:0.112904;stroke-opacity:0.98"
       d="m 187.99107,159.7249 c -2.20818,75.81412 -2.20818,75.81412 -2.20818,75.81412"
       id="path8" /><path
       style="fill:none;stroke:#000000;stroke-width:0.112904;stroke-opacity:0.98"
       d="m 208.60073,159.7249 c -2.20817,75.81412 -2.20817,75.81412 -2.20817,75.81412"
       id="path9" /><path
       style="fill:none;stroke:#000000;stroke-width:0.112904;stroke-opacity:0.98"
       d="m 235.09887,159.7249 c -2.20818,75.81412 -2.20818,75.81412 -2.20818,75.81412"
       id="path10" /><path
       style="fill:none;stroke:#000000;stroke-width:0.112904;stroke-opacity:0.98"
       d="m 266.01337,159.7249 c -2.20818,75.81412 -2.20818,75.81412 -2.20818,75.81412"
       id="path11" /></g></svg>
