<?xml version="1.0" encoding="UTF-8" standalone="no"?>
<!-- Created with Inkscape (http://www.inkscape.org/) -->

<svg
   width="300mm"
   height="300mm"
   viewBox="0 0 300 300"
   version="1.1"
   id="svg1"
   xml:space="preserve"
   inkscape:version="1.4.2 (f4327f4, 2025-05-13)"
   sodipodi:docname="v1Z eiking.svg"
   xmlns:inkscape="http://www.inkscape.org/namespaces/inkscape"
   xmlns:sodipodi="http://sodipodi.sourceforge.net/DTD/sodipodi-0.dtd"
   xmlns="http://www.w3.org/2000/svg"
   xmlns:svg="http://www.w3.org/2000/svg"><sodipodi:namedview
     id="namedview1"
     pagecolor="#ffffff"
     bordercolor="#000000"
     borderopacity="0.25"
     inkscape:showpageshadow="2"
     inkscape:pageopacity="0.0"
     inkscape:pagecheckerboard="0"
     inkscape:deskcolor="#d1d1d1"
     inkscape:document-units="mm"
     inkscape:zoom="0.71891835"
     inkscape:cx="707.31259"
     inkscape:cy="746.25999"
     inkscape:window-width="1920"
     inkscape:window-height="1009"
     inkscape:window-x="-8"
     inkscape:window-y="-8"
     inkscape:window-maximized="1"
     inkscape:current-layer="layer1" /><defs
     id="defs1" /><g
     inkscape:label="Laag 1"
     inkscape:groupmode="layer"
     id="layer1"><path
       style="fill:none;stroke:#000000;stroke-width:0.112904;stroke-opacity:0.98"
       d="m 18.329369,168.92564 c -2.208178,75.81412 -2.208178,75.81412 -2.208178,75.81412"
       id="path2" /><path
       style="fill:none;stroke:#000000;stroke-width:0.112904;stroke-opacity:0.98"
       d="m 38.939034,168.92564 c -2.208178,75.81412 -2.208178,75.81412 -2.208178,75.81412"
       id="path3" /><path
       style="fill:none;stroke:#000000;stroke-width:0.112904;stroke-opacity:0.98"
       d="m 65.437172,168.92564 c -2.20818,75.81412 -2.20818,75.81412 -2.20818,75.81412"
       id="path4" /><path
       style="fill:none;stroke:#000000;stroke-width:0.112904;stroke-opacity:0.98"
       d="m 96.35167,168.92564 c -2.20818,75.81412 -2.20818,75.81412 -2.20818,75.81412"
       id="path5" /><path
       style="fill:none;stroke:#000000;stroke-width:0.112904;stroke-opacity:0.98"
       d="m 147.57992,168.92564 c -2.20818,75.81412 -2.20818,75.81412 -2.20818,75.81412"
       id="path6" /><path
       style="fill:none;stroke:#000000;stroke-width:0.112904;stroke-opacity:0.98"
       d="m 182.91078,168.92564 c -2.20818,75.81412 -2.20818,75.81412 -2.20818,75.81412"
       id="path7" /><path
       style="fill:none;stroke:#000000;stroke-width:0.112904;stroke-opacity:0.98"
       d="m 174.37397,168.92564 c -2.20818,75.81412 -2.20818,75.81412 -2.20818,75.81412"
       id="path8" /><path
       style="fill:none;stroke:#000000;stroke-width:0.112904;stroke-opacity:0.98"
       d="m 194.98363,168.92564 c -2.20817,75.81412 -2.20817,75.81412 -2.20817,75.81412"
       id="path9" /><path
       style="fill:none;stroke:#000000;stroke-width:0.112904;stroke-opacity:0.98"
       d="m 221.48177,168.92564 c -2.20818,75.81412 -2.20818,75.81412 -2.20818,75.81412"
       id="path10" /><path
       style="fill:none;stroke:#000000;stroke-width:0.112904;stroke-opacity:0.98"
       d="m 252.39627,168.92564 c -2.20818,75.81412 -2.20818,75.81412 -2.20818,75.81412"
       id="path11" /><path
       style="fill:none;stroke:#000000;stroke-width:0.112904;stroke-opacity:0.98"
       d="m 55.868409,168.92564 c -2.208178,75.81412 -2.208178,75.81412 -2.208178,75.81412"
       id="path12" /><path
       style="fill:none;stroke:#000000;stroke-width:0.112904;stroke-opacity:0.98"
       d="m 76.478074,168.92564 c -2.208178,75.81412 -2.208178,75.81412 -2.208178,75.81412"
       id="path13" /><path
       style="fill:none;stroke:#000000;stroke-width:0.112904;stroke-opacity:0.98"
       d="m 102.97621,168.92564 c -2.20818,75.81412 -2.20818,75.81412 -2.20818,75.81412"
       id="path14" /><path
       style="fill:none;stroke:#000000;stroke-width:0.112904;stroke-opacity:0.98"
       d="m 133.89071,168.92564 c -2.20818,75.81412 -2.20818,75.81412 -2.20818,75.81412"
       id="path15" /><path
       style="fill:none;stroke:#000000;stroke-width:0.112904;stroke-opacity:0.98"
       d="m 211.91301,168.92564 c -2.20818,75.81412 -2.20818,75.81412 -2.20818,75.81412"
       id="path18" /><path
       style="fill:none;stroke:#000000;stroke-width:0.112904;stroke-opacity:0.98"
       d="m 232.52267,168.92564 c -2.20817,75.81412 -2.20817,75.81412 -2.20817,75.81412"
       id="path19" /><path
       style="fill:none;stroke:#000000;stroke-width:0.112904;stroke-opacity:0.98"
       d="m 259.02081,168.92564 c -2.20818,75.81412 -2.20818,75.81412 -2.20818,75.81412"
       id="path20" /><path
       style="fill:none;stroke:#000000;stroke-width:0.112904;stroke-opacity:0.98"
       d="m 289.93531,168.92564 c -2.20818,75.81412 -2.20818,75.81412 -2.20818,75.81412"
       id="path21" /></g></svg>
